<svg t="1712712572087" class="icon" viewBox="0 0 1024 1024" version="1.1" xmlns="http://www.w3.org/2000/svg" p-id="6458" width="200" height="200"><path d="M517.12 662.016c-82.432 0-150.016-67.072-150.016-150.016S434.688 361.984 517.12 361.984s150.016 67.072 150.016 150.016-67.584 150.016-150.016 150.016z m0-243.712c-51.712 0-93.696 41.984-93.696 93.696s41.984 93.696 93.696 93.696 93.696-41.984 93.696-93.696c0-51.712-41.984-93.696-93.696-93.696z" p-id="6459"></path><path d="M613.888 921.6c-13.312 0-24.576-9.216-27.648-22.016-5.632-25.6-35.328-45.056-69.12-45.056s-63.488 19.456-69.12 45.056c-2.56 12.8-14.336 22.016-27.648 22.016H414.72c-5.12 0-9.728-1.536-13.824-3.584l-177.152-102.4c-4.096-2.56-7.68-6.144-10.24-10.24l-2.56-4.096c-6.656-11.776-4.096-26.624 6.144-35.328 19.968-17.408 22.528-53.248 5.632-82.944-13.824-24.064-37.376-39.936-60.416-39.936-5.12 0-10.24 1.024-14.848 2.56-3.072 1.024-6.144 1.536-9.216 1.536-10.24 0-19.456-5.12-24.576-13.824l-2.56-4.608c-2.56-4.096-3.584-9.216-3.584-13.824V409.6c0-5.12 1.536-9.728 3.584-13.824l1.536-2.56c5.12-8.704 14.336-13.824 24.576-13.824 3.584 0 6.656 0.512 9.728 2.048 5.12 2.048 10.752 3.072 16.384 3.072 23.552 0 48.128-15.872 61.952-39.936 17.408-30.72 14.336-67.584-7.68-86.016-10.752-8.704-13.312-24.064-6.656-35.84l2.048-3.072c2.56-4.096 6.144-7.68 10.24-10.24l177.152-102.4c4.096-2.56 9.216-3.584 13.824-3.584H419.84c13.312 0 24.576 9.216 27.648 22.016 5.632 25.088 35.328 44.032 69.12 44.032s63.488-18.944 69.12-44.032c3.072-12.8 14.336-22.016 27.648-22.016h5.632c5.12 0 9.728 1.536 13.824 3.584l177.152 102.4c4.096 2.56 7.68 6.144 10.24 10.24l1.536 2.56c6.656 11.776 4.096 27.136-6.144 35.84-22.528 18.432-25.6 56.32-7.68 87.04 13.824 24.064 38.4 39.936 62.464 39.936 5.632 0 11.776-1.024 17.408-3.072 3.072-1.024 6.144-1.536 9.728-1.536 10.24 0 19.456 5.632 24.576 13.824l1.024 2.048c2.56 4.096 3.584 9.216 3.584 14.336V614.4c0 5.12-1.536 9.728-3.584 13.824l-1.536 2.048c-5.12 8.704-14.336 13.824-24.576 13.824-3.584 0-6.656-0.512-9.728-1.536-5.12-2.048-10.24-2.56-15.872-2.56-23.552 0-47.616 15.872-61.952 39.936-17.92 30.72-14.848 68.608 6.144 86.016 10.752 8.704 13.312 24.064 6.656 35.84l-2.048 3.072c-2.56 4.096-6.144 7.68-10.24 10.24l-177.152 102.4c-4.096 2.56-9.216 3.584-14.336 3.584l-4.608 0.512zM517.12 798.208c43.52 0 84.992 20.48 108.032 52.736l3.584 4.608 128-74.24-2.56-5.632c-18.432-36.864-15.872-84.48 7.168-124.416 23.04-39.936 61.952-65.024 103.424-68.096l6.144-0.512V440.32l-6.144-0.512c-41.984-2.048-81.92-28.16-104.96-68.096-23.04-39.936-25.088-87.552-6.144-124.928l2.56-5.632-128-73.728-3.584 4.608c-23.04 31.744-64 51.712-107.52 51.712s-84.992-19.968-107.52-51.712l-3.584-4.608-128.512 74.752 2.56 5.632c18.944 36.864 16.384 84.48-6.144 123.904-22.528 39.936-62.976 66.048-104.448 68.096L163.84 440.32v146.944l6.144 0.512c40.96 2.56 79.36 28.16 101.888 67.584 22.016 38.4 24.576 84.48 7.168 120.32l-2.56 5.12 129.536 74.752 3.584-4.608c22.528-32.768 64-52.736 107.52-52.736z" p-id="6460"></path></svg>